<svg width="52" height="28" viewBox="396.5 452 26 14" fill="none" xmlns="http://www.w3.org/2000/svg">
<path d="M415.474 452H403.526C399.646 452 396.5 455.134 396.5 459C396.5 462.866 399.646 466 403.526 466H415.474C419.354 466 422.5 462.866 422.5 459C422.5 455.134 419.354 452 415.474 452Z" fill="#303030"></path>
<path d="M400.576 455.599H408.145V459.391C408.145 460.364 407.624 461.262 406.779 461.749L404.36 463.14L401.942 461.749C401.096 461.262 400.576 460.364 400.576 459.391V455.599Z" fill="#FFDD2D"></path>
<path fill-rule="evenodd" clip-rule="evenodd" d="M402.653 457.595V458.774C402.815 458.592 403.108 458.469 403.445 458.469H403.811V459.84C403.811 460.205 403.711 460.524 403.563 460.7H405.154C405.007 460.524 404.908 460.205 404.908 459.841V458.47H405.273C405.61 458.47 405.905 458.593 406.066 458.775V457.596H402.651L402.653 457.595Z" fill="#333333"></path>
<path d="M412.466 461.378V456.921H411.055V461.378H412.466Z" fill="white"></path>
<path d="M415.866 461.378C417.651 461.378 418.534 460.432 418.534 459.15C418.534 457.867 417.65 456.921 416.016 456.921H413.498V461.378H415.867H415.866ZM415.724 457.988C416.692 457.988 417.096 458.419 417.096 459.15C417.096 459.824 416.693 460.339 415.724 460.339H414.859V457.988H415.724Z" fill="white"></path>
</svg>